<svg width="512" height="512" viewBox="0 0 512 512" fill="none" xmlns="http://www.w3.org/2000/svg">
<g clip-path="url(#clip0)">
<path d="M96.7998 245.6C148.711 260.65 199.551 267.138 253.6 267.2V475.2C199.551 475.138 151.111 468.742 99.1998 453.692C91.4164 451.656 84.953 448.727 80.4593 445.2C75.9656 441.673 73.5998 437.672 73.5998 433.6L73.5998 228.923C73.5645 228.394 73.5998 227.857 73.5998 227.2L73.5998 228.923C73.6934 230.328 74.2831 231.683 77.3421 235.107C81.5544 239.821 87.1397 243.01 96.7998 245.6Z" fill="#D7EBF9"/>
<path d="M80.4593 214.8C75.9655 218.327 73.5998 222.328 73.5998 226.4V259.2H156.8V217.6C156.8 215.709 155.972 213.836 154.364 212.089C152.756 210.342 150.399 208.755 147.427 207.418C144.456 206.081 140.928 205.02 137.046 204.296C133.163 203.572 129.002 203.2 124.8 203.2C115.812 203.2 106.983 204.272 99.1998 206.308C91.4164 208.344 84.953 211.273 80.4593 214.8Z" fill="#D7EBF9"/>
<path d="M96.8 245.6L98.0531 241.278C98.0239 241.27 97.9946 241.261 97.9653 241.254L96.8 245.6ZM73.6 433.6L78.1 433.6L73.6 433.6ZM93.7397 207.957L92.2692 203.704L93.7397 207.957ZM75.4159 220.276L79.2679 222.603L79.2679 222.603L75.4159 220.276ZM77.3423 235.107L80.6979 232.108L77.3423 235.107ZM80.4595 445.2L77.6812 448.74L77.6812 448.74L80.4595 445.2ZM99.2 453.692L100.453 449.37C100.415 449.359 100.377 449.348 100.339 449.338L99.2 453.692ZM253.595 479.7C256.08 479.703 258.097 477.69 258.1 475.205C258.103 472.72 256.09 470.703 253.605 470.7L253.595 479.7ZM147.427 227.782L145.581 223.679L145.581 223.679L147.427 227.782ZM154.364 223.111L151.053 220.063L151.053 220.063L154.364 223.111ZM154.364 212.089L151.053 215.137L151.053 215.137L154.364 212.089ZM147.427 207.418L145.581 211.521L145.581 211.521L147.427 207.418ZM137.046 204.296L136.221 208.72L137.046 204.296ZM108.8 230.071L109.932 225.715C108.583 225.365 107.149 225.659 106.047 226.511C104.945 227.363 104.3 228.678 104.3 230.071H108.8ZM95.547 249.922C147.905 265.102 199.168 271.638 253.595 271.7L253.605 262.7C199.933 262.639 149.518 256.199 98.0531 241.278L95.547 249.922ZM69.1 227.2L69.1 433.6L78.1 433.6L78.1 227.2L69.1 227.2ZM124.8 198.7C113.167 198.7 101.745 200.427 92.2692 203.704L95.2103 212.21C103.58 209.315 113.984 207.7 124.8 207.7V198.7ZM92.2692 203.704C82.9482 206.927 75.3261 211.72 71.5639 217.95L79.2679 222.603C81.4312 219.021 86.6854 215.157 95.2103 212.21L92.2692 203.704ZM71.5639 217.95C69.6186 221.171 68.7546 224.714 69.226 228.343C69.6924 231.933 71.4148 235.227 73.9867 238.105L80.6979 232.108C79.0576 230.273 78.3354 228.603 78.151 227.184C77.9715 225.802 78.2505 224.287 79.2679 222.603L71.5639 217.95ZM73.9867 238.105C78.9793 243.693 85.4686 247.221 95.6348 249.947L97.9653 241.254C88.8113 238.799 84.1299 235.949 80.6979 232.108L73.9867 238.105ZM69.1 433.6C69.1 439.551 72.5627 444.723 77.6812 448.74L83.2378 441.66C79.3689 438.624 78.1 435.794 78.1 433.6H69.1ZM77.6812 448.74C82.8152 452.769 89.9076 455.912 98.0611 458.045L100.339 449.338C92.9256 447.399 87.0913 444.684 83.2378 441.66L77.6812 448.74ZM97.947 458.014C150.292 473.19 199.154 479.638 253.595 479.7L253.605 470.7C199.948 470.639 151.931 464.294 100.453 449.37L97.947 458.014ZM124.8 236.5C129.261 236.5 133.699 236.105 137.87 235.328L136.221 226.48C132.628 227.15 128.743 227.5 124.8 227.5V236.5ZM137.87 235.328C142.034 234.552 145.916 233.397 149.274 231.886L145.581 223.679C142.996 224.842 139.823 225.809 136.221 226.48L137.87 235.328ZM149.274 231.886C152.607 230.386 155.532 228.486 157.675 226.158L151.053 220.063C149.98 221.229 148.191 222.504 145.581 223.679L149.274 231.886ZM157.675 226.158C159.844 223.802 161.3 220.889 161.3 217.6H152.3C152.3 218.094 152.1 218.925 151.053 220.063L157.675 226.158ZM161.3 217.6C161.3 214.311 159.844 211.398 157.675 209.042L151.053 215.137C152.1 216.275 152.3 217.106 152.3 217.6H161.3ZM157.675 209.042C155.532 206.714 152.607 204.814 149.274 203.314L145.581 211.521C148.191 212.696 149.98 213.971 151.053 215.137L157.675 209.042ZM149.274 203.314C145.916 201.803 142.034 200.648 137.87 199.872L136.221 208.72C139.823 209.391 142.996 210.358 145.581 211.521L149.274 203.314ZM137.87 199.872C133.699 199.095 129.261 198.7 124.8 198.7V207.7C128.743 207.7 132.628 208.05 136.221 208.72L137.87 199.872ZM152.3 217.6V259.2H161.3V217.6H152.3ZM124.8 227.5C119.521 227.5 114.386 226.873 109.932 225.715L107.668 234.426C112.943 235.797 118.845 236.5 124.8 236.5V227.5ZM104.3 230.071V248.8H113.3V230.071H104.3Z" fill="#2779AA"/>
<path d="M410.4 245.6C358.488 260.65 307.649 267.138 253.6 267.2V475.2C307.649 475.138 356.088 468.742 408 453.692C415.783 451.656 422.247 448.727 426.74 445.2C431.234 441.673 433.6 437.672 433.6 433.6V228.923C433.635 228.394 433.6 227.857 433.6 227.2V228.923C433.506 230.328 432.917 231.683 429.858 235.107C425.645 239.821 420.06 243.01 410.4 245.6Z" fill="#D7EBF9"/>
<path d="M426.74 214.8C431.234 218.327 433.6 222.328 433.6 226.4V259.2H350.4V217.6C350.4 215.709 351.228 213.836 352.836 212.089C354.444 210.342 356.801 208.755 359.773 207.418C362.744 206.081 366.272 205.02 370.154 204.296C374.037 203.572 378.198 203.2 382.4 203.2C391.387 203.2 400.217 204.272 408 206.308C415.783 208.344 422.247 211.273 426.74 214.8Z" fill="#D7EBF9"/>
<path d="M410.4 245.6L409.147 241.278C409.176 241.27 409.205 241.261 409.235 241.253L410.4 245.6ZM433.6 433.6L429.1 433.6L433.6 433.6ZM413.46 207.957L414.931 203.704L414.931 203.704L413.46 207.957ZM429.858 235.107L433.213 238.105L433.213 238.105L429.858 235.107ZM426.74 445.2L429.519 448.74L429.519 448.74L426.74 445.2ZM408 453.692L406.747 449.37C406.785 449.359 406.823 449.348 406.861 449.338L408 453.692ZM253.605 479.7C251.12 479.703 249.103 477.69 249.1 475.205C249.097 472.72 251.11 470.703 253.595 470.7L253.605 479.7ZM359.773 227.782L357.926 231.886L357.926 231.886L359.773 227.782ZM398.4 230.071L397.268 225.715C398.617 225.365 400.051 225.659 401.153 226.511C402.255 227.363 402.9 228.678 402.9 230.071H398.4ZM411.653 249.922C359.295 265.102 308.032 271.638 253.605 271.7L253.595 262.7C307.267 262.639 357.682 256.199 409.147 241.278L411.653 249.922ZM438.1 227.2L438.1 433.6L429.1 433.6L429.1 227.2L438.1 227.2ZM382.4 198.7C394.033 198.7 405.455 200.427 414.931 203.704L411.99 212.21C403.62 209.315 393.216 207.7 382.4 207.7V198.7ZM414.931 203.704C424.252 206.927 431.874 211.72 435.636 217.95L427.932 222.603C425.769 219.021 420.515 215.157 411.99 212.21L414.931 203.704ZM435.636 217.95C437.581 221.171 438.445 224.714 437.974 228.343C437.508 231.933 435.785 235.227 433.213 238.105L426.502 232.108C428.142 230.273 428.865 228.603 429.049 227.184C429.228 225.802 428.95 224.287 427.932 222.603L435.636 217.95ZM433.213 238.105C428.221 243.693 421.731 247.221 411.565 249.947L409.235 241.253C418.389 238.799 423.07 235.949 426.502 232.108L433.213 238.105ZM438.1 433.6C438.1 439.551 434.637 444.723 429.519 448.74L423.962 441.66C427.831 438.624 429.1 435.794 429.1 433.6H438.1ZM429.519 448.74C424.385 452.769 417.292 455.912 409.139 458.045L406.861 449.338C414.274 447.399 420.109 444.684 423.962 441.66L429.519 448.74ZM409.253 458.014C356.908 473.19 308.046 479.638 253.605 479.7L253.595 470.7C307.252 470.639 355.269 464.294 406.747 449.37L409.253 458.014ZM382.4 236.5C377.939 236.5 373.501 236.105 369.33 235.328L370.979 226.48C374.572 227.15 378.457 227.5 382.4 227.5V236.5ZM369.33 235.328C365.166 234.552 361.284 233.397 357.926 231.886L361.619 223.679C364.204 224.842 367.377 225.809 370.979 226.48L369.33 235.328ZM357.926 231.886C354.593 230.386 351.668 228.486 349.525 226.158L356.147 220.063C357.22 221.229 359.009 222.504 361.619 223.679L357.926 231.886ZM349.525 226.158C347.356 223.802 345.9 220.889 345.9 217.6H354.9C354.9 218.094 355.1 218.925 356.147 220.063L349.525 226.158ZM345.9 217.6C345.9 214.311 347.356 211.398 349.525 209.042L356.147 215.137C355.1 216.275 354.9 217.106 354.9 217.6H345.9ZM349.525 209.042C351.668 206.714 354.593 204.814 357.926 203.314L361.619 211.521C359.009 212.696 357.22 213.971 356.147 215.137L349.525 209.042ZM357.926 203.314C361.284 201.803 365.166 200.648 369.33 199.872L370.979 208.72C367.377 209.391 364.204 210.358 361.619 211.521L357.926 203.314ZM369.33 199.872C373.501 199.095 377.939 198.7 382.4 198.7V207.7C378.457 207.7 374.572 208.05 370.979 208.72L369.33 199.872ZM354.9 217.6V259.2H345.9V217.6H354.9ZM382.4 227.5C387.679 227.5 392.814 226.873 397.268 225.715L399.532 234.426C394.257 235.797 388.355 236.5 382.4 236.5V227.5ZM402.9 230.071V248.8H393.9V230.071H402.9Z" fill="#2779AA"/>
<path d="M252.742 32C246.457 31.9977 240.188 32.367 236.467 33.1095C225.889 35.2205 216.65 38.8898 208.524 44.2092C203.36 47.5897 195.161 55.6746 191.713 60.7849C188.163 66.0478 183.973 74.9802 182.358 80.7279C174.628 108.233 181.376 143.486 199.475 170.154C202.359 175.909 207.053 179.791 211.392 184.105C220.308 192.983 229.104 198.441 239.519 201.559C244.178 202.954 246.163 203.2 252.791 203.2C259.418 203.2 261.404 202.954 266.064 201.559C276.504 198.433 285.336 192.945 294.155 184.103C299.182 180.014 302.593 175.396 306.163 170.043C327.06 138.955 332.408 98.1742 319.228 70.4078C315.513 62.5815 312.056 57.6747 306.154 51.8448C296.312 42.1246 284.501 36.1535 269.115 33.1229C265.329 32.3772 259.027 32.0028 252.742 32.0001V32Z" fill="#2779AA"/>
</g>
<defs>
<clipPath id="clip0">
<rect width="512" height="512" fill="white"/>
</clipPath>
</defs>
</svg>
