<svg width="320" height="320" viewBox="0 0 320 320" fill="none" xmlns="http://www.w3.org/2000/svg">
<g clip-path="url(#clip0)">
<path d="M60.5 153.5C92.9448 162.906 124.719 166.961 158.5 167V297C124.719 296.961 94.4448 292.964 62 283.557C57.1354 282.285 53.0958 280.454 50.2872 278.25C47.4786 276.046 46 273.545 46 271L46 143.077C45.978 142.746 46 142.411 46 142L46 143.077C46.0585 143.955 46.4271 144.802 48.339 146.942C50.9717 149.888 54.4625 151.881 60.5 153.5Z" fill="#D7EBF9"/>
<path d="M50.2872 134.25C47.4786 136.454 46 138.955 46 141.5V162H98V136C98 134.818 97.4827 133.648 96.4776 132.556C95.4725 131.464 93.9993 130.472 92.1421 129.636C90.285 128.8 88.0802 128.137 85.6537 127.685C83.2272 127.233 80.6265 127 78 127C72.3829 127 66.8646 127.67 62 128.943C57.1354 130.215 53.0958 132.046 50.2872 134.25Z" fill="#D7EBF9"/>
<path d="M60.5 153.5L61.4746 150.138C61.4519 150.132 61.4291 150.125 61.4063 150.119L60.5 153.5ZM46 271L49.5 271L46 271ZM58.5873 129.973L57.4435 126.665L57.4435 126.665L58.5873 129.973ZM47.1349 137.673L50.1309 139.482L50.1309 139.482L47.1349 137.673ZM50.2872 278.25L48.1263 281.003L48.1263 281.003L50.2872 278.25ZM62 283.557L62.9746 280.196C62.9451 280.187 62.9155 280.179 62.8858 280.171L62 283.557ZM158.496 300.5C160.429 300.502 161.998 298.937 162 297.004C162.002 295.071 160.437 293.502 158.504 293.5L158.496 300.5ZM92.1421 142.364L93.5784 145.556L93.5784 145.556L92.1421 142.364ZM68 143.794L68.8801 140.407C67.8315 140.134 66.7158 140.363 65.8588 141.026C65.0018 141.688 64.5 142.711 64.5 143.794H68ZM59.5254 156.862C92.3174 166.369 124.422 170.461 158.496 170.5L158.504 163.5C125.017 163.462 93.5721 159.444 61.4746 150.138L59.5254 156.862ZM42.5 142L42.5 271L49.5 271L49.5 142L42.5 142ZM78 123.5C70.6671 123.5 63.4503 124.588 57.4435 126.665L59.7311 133.281C64.878 131.501 71.3026 130.5 78 130.5V123.5ZM57.4435 126.665C51.5572 128.7 46.6125 131.768 44.139 135.863L50.1309 139.482C51.3608 137.446 54.4639 135.102 59.7311 133.281L57.4435 126.665ZM44.139 135.863C42.8523 137.994 42.2676 140.363 42.5845 142.803C42.8975 145.213 44.0504 147.395 45.729 149.274L50.9489 144.61C49.9948 143.542 49.6199 142.623 49.5261 141.901C49.4363 141.209 49.5659 140.418 50.1309 139.482L44.139 135.863ZM45.729 149.274C48.9686 152.899 53.1625 155.156 59.5937 156.881L61.4063 150.119C55.7624 148.606 52.9747 146.877 50.9489 144.61L45.729 149.274ZM42.5 271C42.5 275.006 44.8318 278.418 48.1263 281.003L52.4481 275.497C50.1255 273.674 49.5 272.084 49.5 271H42.5ZM48.1263 281.003C51.4329 283.598 55.9617 285.595 61.1142 286.943L62.8858 280.171C58.3091 278.974 54.7587 277.31 52.4481 275.497L48.1263 281.003ZM61.0254 286.919C93.8076 296.423 124.411 300.461 158.496 300.5L158.504 293.5C125.028 293.462 95.0819 289.504 62.9746 280.196L61.0254 286.919ZM78 148.5C80.8279 148.5 83.644 148.25 86.295 147.756L85.0123 140.874C82.8103 141.285 80.4249 141.5 78 141.5V148.5ZM86.295 147.756C88.9398 147.263 91.4202 146.527 93.5784 145.556L90.7059 139.172C89.1497 139.873 87.2205 140.463 85.0123 140.874L86.295 147.756ZM93.5784 145.556C95.7164 144.594 97.6319 143.358 99.0527 141.815L93.9024 137.074C93.3131 137.714 92.2823 138.463 90.7059 139.172L93.5784 145.556ZM99.0527 141.815C100.494 140.249 101.5 138.269 101.5 136H94.5C94.5 136.095 94.4712 136.456 93.9024 137.074L99.0527 141.815ZM101.5 136C101.5 133.731 100.494 131.751 99.0527 130.185L93.9024 134.926C94.4712 135.544 94.5 135.905 94.5 136H101.5ZM99.0527 130.185C97.6319 128.642 95.7164 127.406 93.5784 126.444L90.7059 132.828C92.2823 133.537 93.3131 134.286 93.9024 134.926L99.0527 130.185ZM93.5784 126.444C91.4202 125.473 88.9398 124.737 86.295 124.244L85.0123 131.126C87.2205 131.537 89.1497 132.127 90.7059 132.828L93.5784 126.444ZM86.295 124.244C83.644 123.75 80.8279 123.5 78 123.5V130.5C80.4249 130.5 82.8103 130.715 85.0123 131.126L86.295 124.244ZM94.5 136V162H101.5V136H94.5ZM78 141.5C74.7519 141.5 71.6017 141.114 68.8801 140.407L67.1199 147.182C70.4791 148.055 74.2266 148.5 78 148.5V141.5ZM64.5 143.794V155.5H71.5V143.794H64.5Z" fill="#2779AA"/>
<path d="M256.5 153.5C224.055 162.906 192.281 166.961 158.5 167V297C192.281 296.961 222.555 292.964 255 283.557C259.865 282.285 263.904 280.454 266.713 278.25C269.521 276.046 271 273.545 271 271V143.077C271.022 142.746 271 142.411 271 142V143.077C270.942 143.955 270.573 144.802 268.661 146.942C266.028 149.888 262.538 151.881 256.5 153.5Z" fill="#D7EBF9"/>
<path d="M266.713 134.25C269.521 136.454 271 138.955 271 141.5V162H219V136C219 134.818 219.517 133.648 220.522 132.556C221.528 131.464 223.001 130.472 224.858 129.636C226.715 128.8 228.92 128.137 231.346 127.685C233.773 127.233 236.374 127 239 127C244.617 127 250.135 127.67 255 128.943C259.865 130.215 263.904 132.046 266.713 134.25Z" fill="#D7EBF9"/>
<path d="M256.5 153.5L255.525 150.138C255.548 150.132 255.571 150.125 255.594 150.119L256.5 153.5ZM271 271L267.5 271L271 271ZM258.413 129.973L259.556 126.665L259.556 126.665L258.413 129.973ZM269.865 137.673L266.869 139.482L266.869 139.482L269.865 137.673ZM266.713 278.25L268.874 281.003L268.874 281.003L266.713 278.25ZM255 283.557L254.025 280.196C254.055 280.187 254.084 280.179 254.114 280.171L255 283.557ZM158.504 300.5C156.571 300.502 155.002 298.937 155 297.004C154.998 295.071 156.563 293.502 158.496 293.5L158.504 300.5ZM224.858 142.364L223.422 145.556L223.422 145.556L224.858 142.364ZM249 143.794L248.12 140.407C249.169 140.134 250.284 140.363 251.141 141.026C251.998 141.688 252.5 142.711 252.5 143.794H249ZM257.475 156.862C224.683 166.369 192.578 170.461 158.504 170.5L158.496 163.5C191.983 163.462 223.428 159.444 255.525 150.138L257.475 156.862ZM274.5 142L274.5 271L267.5 271L267.5 142L274.5 142ZM239 123.5C246.333 123.5 253.55 124.588 259.556 126.665L257.269 133.281C252.122 131.501 245.697 130.5 239 130.5V123.5ZM259.556 126.665C265.443 128.7 270.388 131.768 272.861 135.863L266.869 139.482C265.639 137.446 262.536 135.102 257.269 133.281L259.556 126.665ZM272.861 135.863C274.148 137.994 274.732 140.363 274.416 142.803C274.103 145.213 272.95 147.395 271.271 149.274L266.051 144.61C267.005 143.542 267.38 142.623 267.474 141.901C267.564 141.209 267.434 140.418 266.869 139.482L272.861 135.863ZM271.271 149.274C268.031 152.899 263.837 155.156 257.406 156.881L255.594 150.119C261.238 148.606 264.025 146.877 266.051 144.61L271.271 149.274ZM274.5 271C274.5 275.006 272.168 278.418 268.874 281.003L264.552 275.497C266.875 273.674 267.5 272.084 267.5 271H274.5ZM268.874 281.003C265.567 283.598 261.038 285.595 255.886 286.943L254.114 280.171C258.691 278.974 262.241 277.31 264.552 275.497L268.874 281.003ZM255.975 286.919C223.192 296.423 192.589 300.461 158.504 300.5L158.496 293.5C191.972 293.462 221.918 289.504 254.025 280.196L255.975 286.919ZM239 148.5C236.172 148.5 233.356 148.25 230.705 147.756L231.988 140.874C234.19 141.285 236.575 141.5 239 141.5V148.5ZM230.705 147.756C228.06 147.263 225.58 146.527 223.422 145.556L226.294 139.172C227.85 139.873 229.779 140.463 231.988 140.874L230.705 147.756ZM223.422 145.556C221.284 144.594 219.368 143.358 217.947 141.815L223.098 137.074C223.687 137.714 224.718 138.463 226.294 139.172L223.422 145.556ZM217.947 141.815C216.506 140.249 215.5 138.269 215.5 136H222.5C222.5 136.095 222.529 136.456 223.098 137.074L217.947 141.815ZM215.5 136C215.5 133.731 216.506 131.751 217.947 130.185L223.098 134.926C222.529 135.544 222.5 135.905 222.5 136H215.5ZM217.947 130.185C219.368 128.642 221.284 127.406 223.422 126.444L226.294 132.828C224.718 133.537 223.687 134.286 223.098 134.926L217.947 130.185ZM223.422 126.444C225.58 125.473 228.06 124.737 230.705 124.244L231.988 131.126C229.779 131.537 227.85 132.127 226.294 132.828L223.422 126.444ZM230.705 124.244C233.356 123.75 236.172 123.5 239 123.5V130.5C236.575 130.5 234.19 130.715 231.988 131.126L230.705 124.244ZM222.5 136V162H215.5V136H222.5ZM239 141.5C242.248 141.5 245.398 141.114 248.12 140.407L249.88 147.182C246.521 148.055 242.773 148.5 239 148.5V141.5ZM252.5 143.794V155.5H245.5V143.794H252.5Z" fill="#2779AA"/>
<path d="M157.964 20C154.035 19.9985 150.117 20.2294 147.792 20.6934C141.181 22.0128 135.407 24.3061 130.327 27.6308C127.1 29.7436 121.975 34.7967 119.821 37.9906C117.602 41.2799 114.983 46.8626 113.973 50.4549C109.142 67.6454 113.36 89.6785 124.672 106.346C126.474 109.943 129.408 112.369 132.12 115.065C137.692 120.614 143.19 124.026 149.699 125.975C152.611 126.847 153.852 127 157.994 127C162.136 127 163.378 126.847 166.29 125.975C172.815 124.021 178.335 120.591 183.847 115.065C186.989 112.509 189.12 109.623 191.352 106.277C204.413 86.8471 207.755 61.3589 199.518 44.0049C197.196 39.1135 195.035 36.0467 191.346 32.403C185.195 26.3279 177.813 22.596 168.197 20.7018C165.831 20.2357 161.892 20.0018 157.964 20.0001V20Z" fill="#2779AA"/>
</g>
<defs>
<clipPath id="clip0">
<rect width="320" height="320" fill="white"/>
</clipPath>
</defs>
</svg>
