<?xml version="1.0" encoding="UTF-8" standalone="no"?>
<svg
   width="512"
   height="512"
   viewBox="0 0 512 512"
   fill="none"
   version="1.1"
   id="svg23"
   sodipodi:docname="ezra-android.svg"
   inkscape:version="1.2.2 (b0a8486541, 2022-12-01)"
   inkscape:export-filename="ezra-android.png"
   inkscape:export-xdpi="54"
   inkscape:export-ydpi="54"
   xmlns:inkscape="http://www.inkscape.org/namespaces/inkscape"
   xmlns:sodipodi="http://sodipodi.sourceforge.net/DTD/sodipodi-0.dtd"
   xmlns="http://www.w3.org/2000/svg"
   xmlns:svg="http://www.w3.org/2000/svg">
  <sodipodi:namedview
     id="namedview25"
     pagecolor="#ffffff"
     bordercolor="#000000"
     borderopacity="0.25"
     inkscape:showpageshadow="2"
     inkscape:pageopacity="0.0"
     inkscape:pagecheckerboard="0"
     inkscape:deskcolor="#d1d1d1"
     showgrid="false"
     inkscape:zoom="1.4511719"
     inkscape:cx="77.179004"
     inkscape:cy="256"
     inkscape:window-width="1920"
     inkscape:window-height="996"
     inkscape:window-x="0"
     inkscape:window-y="0"
     inkscape:window-maximized="1"
     inkscape:current-layer="svg23" />
  <g
     clip-path="url(#clip0)"
     id="g16"
     transform="matrix(0.64,0,0,0.64,91.295968,92.105998)">
    <path
       d="M 96.7998,245.6 C 148.711,260.65 199.551,267.138 253.6,267.2 v 208 C 199.551,475.138 151.111,468.742 99.1998,453.692 91.4164,451.656 84.953,448.727 80.4593,445.2 75.9656,441.673 73.5998,437.672 73.5998,433.6 V 228.923 c -0.0353,-0.529 0,-1.066 0,-1.723 v 1.723 c 0.0936,1.405 0.6833,2.76 3.7423,6.184 4.2123,4.714 9.7976,7.903 19.4577,10.493 z"
       fill="#d7ebf9"
       id="path2" />
    <path
       d="m 80.4593,214.8 c -4.4938,3.527 -6.8595,7.528 -6.8595,11.6 v 32.8 H 156.8 v -41.6 c 0,-1.891 -0.828,-3.764 -2.436,-5.511 -1.608,-1.747 -3.965,-3.334 -6.937,-4.671 -2.971,-1.337 -6.499,-2.398 -10.381,-3.122 -3.883,-0.724 -8.044,-1.096 -12.246,-1.096 -8.988,0 -17.817,1.072 -25.6002,3.108 -7.7834,2.036 -14.2468,4.965 -18.7405,8.492 z"
       fill="#d7ebf9"
       id="path4" />
    <path
       d="m 96.8,245.6 1.2531,-4.322 c -0.0292,-0.008 -0.0585,-0.017 -0.0878,-0.024 z m -23.2,188 h 4.5 z m 20.1397,-225.643 -1.4705,-4.253 z m -18.3238,12.319 3.852,2.327 v 0 z m 1.9264,14.831 3.3556,-2.999 z m 3.1172,210.093 -2.7783,3.54 v 0 z m 18.7405,8.492 1.253,-4.322 c -0.038,-0.011 -0.076,-0.022 -0.114,-0.032 z M 253.595,479.7 c 2.485,0.003 4.502,-2.01 4.505,-4.495 0.003,-2.485 -2.01,-4.502 -4.495,-4.505 z m -106.168,-251.918 -1.846,-4.103 v 0 z m 6.937,-4.671 -3.311,-3.048 v 0 z m 0,-11.022 -3.311,3.048 v 0 z m -6.937,-4.671 -1.846,4.103 v 0 z m -10.381,-3.122 -0.825,4.424 z m -28.246,25.775 1.132,-4.356 c -1.349,-0.35 -2.783,-0.056 -3.885,0.796 -1.102,0.852 -1.747,2.167 -1.747,3.56 z m -13.253,19.851 c 52.358,15.18 103.621,21.716 158.048,21.778 l 0.01,-9 C 199.933,262.639 149.518,256.199 98.0531,241.278 Z M 69.1,227.2 v 206.4 h 9 V 227.2 Z m 55.7,-28.5 c -11.633,0 -23.055,1.727 -32.5308,5.004 l 2.9411,8.506 C 103.58,209.315 113.984,207.7 124.8,207.7 Z m -32.5308,5.004 c -9.321,3.223 -16.9431,8.016 -20.7053,14.246 l 7.704,4.653 c 2.1633,-3.582 7.4175,-7.446 15.9424,-10.393 z M 71.5639,217.95 c -1.9453,3.221 -2.8093,6.764 -2.3379,10.393 0.4664,3.59 2.1888,6.884 4.7607,9.762 l 6.7112,-5.997 c -1.6403,-1.835 -2.3625,-3.505 -2.5469,-4.924 -0.1795,-1.382 0.0995,-2.897 1.1169,-4.581 z m 2.4228,20.155 c 4.9926,5.588 11.4819,9.116 21.6481,11.842 l 2.3305,-8.693 c -9.154,-2.455 -13.8354,-5.305 -17.2674,-9.146 z M 69.1,433.6 c 0,5.951 3.4627,11.123 8.5812,15.14 l 5.5566,-7.08 C 79.3689,438.624 78.1,435.794 78.1,433.6 Z m 8.5812,15.14 c 5.134,4.029 12.2264,7.172 20.3799,9.305 l 2.2779,-8.707 c -7.4134,-1.939 -13.2477,-4.654 -17.1012,-7.678 z m 20.2658,9.274 c 52.345,15.176 101.207,21.624 155.648,21.686 l 0.01,-9 C 199.948,470.639 151.931,464.294 100.453,449.37 Z M 124.8,236.5 c 4.461,0 8.899,-0.395 13.07,-1.172 l -1.649,-8.848 c -3.593,0.67 -7.478,1.02 -11.421,1.02 z m 13.07,-1.172 c 4.164,-0.776 8.046,-1.931 11.404,-3.442 l -3.693,-8.207 c -2.585,1.163 -5.758,2.13 -9.36,2.801 z m 11.404,-3.442 c 3.333,-1.5 6.258,-3.4 8.401,-5.728 l -6.622,-6.095 c -1.073,1.166 -2.862,2.441 -5.472,3.616 z m 8.401,-5.728 c 2.169,-2.356 3.625,-5.269 3.625,-8.558 h -9 c 0,0.494 -0.2,1.325 -1.247,2.463 z M 161.3,217.6 c 0,-3.289 -1.456,-6.202 -3.625,-8.558 l -6.622,6.095 c 1.047,1.138 1.247,1.969 1.247,2.463 z m -3.625,-8.558 c -2.143,-2.328 -5.068,-4.228 -8.401,-5.728 l -3.693,8.207 c 2.61,1.175 4.399,2.45 5.472,3.616 z m -8.401,-5.728 c -3.358,-1.511 -7.24,-2.666 -11.404,-3.442 l -1.649,8.848 c 3.602,0.671 6.775,1.638 9.36,2.801 z m -11.404,-3.442 c -4.171,-0.777 -8.609,-1.172 -13.07,-1.172 v 9 c 3.943,0 7.828,0.35 11.421,1.02 z M 152.3,217.6 v 41.6 h 9 v -41.6 z m -27.5,9.9 c -5.279,0 -10.414,-0.627 -14.868,-1.785 l -2.264,8.711 c 5.275,1.371 11.177,2.074 17.132,2.074 z m -20.5,2.571 V 248.8 h 9 v -18.729 z"
       fill="#2779aa"
       id="path6" />
    <path
       d="m 410.4,245.6 c -51.912,15.05 -102.751,21.538 -156.8,21.6 v 208 c 54.049,-0.062 102.488,-6.458 154.4,-21.508 7.783,-2.036 14.247,-4.965 18.74,-8.492 4.494,-3.527 6.86,-7.528 6.86,-11.6 V 228.923 c 0.035,-0.529 0,-1.066 0,-1.723 v 1.723 c -0.094,1.405 -0.683,2.76 -3.742,6.184 -4.213,4.714 -9.798,7.903 -19.458,10.493 z"
       fill="#d7ebf9"
       id="path8" />
    <path
       d="m 426.74,214.8 c 4.494,3.527 6.86,7.528 6.86,11.6 v 32.8 h -83.2 v -41.6 c 0,-1.891 0.828,-3.764 2.436,-5.511 1.608,-1.747 3.965,-3.334 6.937,-4.671 2.971,-1.337 6.499,-2.398 10.381,-3.122 3.883,-0.724 8.044,-1.096 12.246,-1.096 8.987,0 17.817,1.072 25.6,3.108 7.783,2.036 14.247,4.965 18.74,8.492 z"
       fill="#d7ebf9"
       id="path10" />
    <path
       d="m 410.4,245.6 -1.253,-4.322 c 0.029,-0.008 0.058,-0.017 0.088,-0.025 z m 23.2,188 h -4.5 z m -20.14,-225.643 1.471,-4.253 v 0 z m 16.398,27.15 3.355,2.998 v 0 z m -3.118,210.093 2.779,3.54 v 0 z m -18.74,8.492 -1.253,-4.322 c 0.038,-0.011 0.076,-0.022 0.114,-0.032 z M 253.605,479.7 c -2.485,0.003 -4.502,-2.01 -4.505,-4.495 -0.003,-2.485 2.01,-4.502 4.495,-4.505 z m 106.168,-251.918 -1.847,4.104 v 0 z m 38.627,2.289 -1.132,-4.356 c 1.349,-0.35 2.783,-0.056 3.885,0.796 1.102,0.852 1.747,2.167 1.747,3.56 z m 13.253,19.851 c -52.358,15.18 -103.621,21.716 -158.048,21.778 l -0.01,-9 c 53.672,-0.061 104.087,-6.501 155.552,-21.422 z M 438.1,227.2 v 206.4 h -9 V 227.2 Z m -55.7,-28.5 c 11.633,0 23.055,1.727 32.531,5.004 l -2.941,8.506 c -8.37,-2.895 -18.774,-4.51 -29.59,-4.51 z m 32.531,5.004 c 9.321,3.223 16.943,8.016 20.705,14.246 l -7.704,4.653 c -2.163,-3.582 -7.417,-7.446 -15.942,-10.393 z m 20.705,14.246 c 1.945,3.221 2.809,6.764 2.338,10.393 -0.466,3.59 -2.189,6.884 -4.761,9.762 l -6.711,-5.997 c 1.64,-1.835 2.363,-3.505 2.547,-4.924 0.179,-1.382 -0.099,-2.897 -1.117,-4.581 z m -2.423,20.155 c -4.992,5.588 -11.482,9.116 -21.648,11.842 l -2.33,-8.694 c 9.154,-2.454 13.835,-5.304 17.267,-9.145 z M 438.1,433.6 c 0,5.951 -3.463,11.123 -8.581,15.14 l -5.557,-7.08 c 3.869,-3.036 5.138,-5.866 5.138,-8.06 z m -8.581,15.14 c -5.134,4.029 -12.227,7.172 -20.38,9.305 l -2.278,-8.707 c 7.413,-1.939 13.248,-4.654 17.101,-7.678 z m -20.266,9.274 C 356.908,473.19 308.046,479.638 253.605,479.7 l -0.01,-9 c 53.657,-0.061 101.674,-6.406 153.152,-21.33 z M 382.4,236.5 c -4.461,0 -8.899,-0.395 -13.07,-1.172 l 1.649,-8.848 c 3.593,0.67 7.478,1.02 11.421,1.02 z m -13.07,-1.172 c -4.164,-0.776 -8.046,-1.931 -11.404,-3.442 l 3.693,-8.207 c 2.585,1.163 5.758,2.13 9.36,2.801 z m -11.404,-3.442 c -3.333,-1.5 -6.258,-3.4 -8.401,-5.728 l 6.622,-6.095 c 1.073,1.166 2.862,2.441 5.472,3.616 z m -8.401,-5.728 c -2.169,-2.356 -3.625,-5.269 -3.625,-8.558 h 9 c 0,0.494 0.2,1.325 1.247,2.463 z M 345.9,217.6 c 0,-3.289 1.456,-6.202 3.625,-8.558 l 6.622,6.095 c -1.047,1.138 -1.247,1.969 -1.247,2.463 z m 3.625,-8.558 c 2.143,-2.328 5.068,-4.228 8.401,-5.728 l 3.693,8.207 c -2.61,1.175 -4.399,2.45 -5.472,3.616 z m 8.401,-5.728 c 3.358,-1.511 7.24,-2.666 11.404,-3.442 l 1.649,8.848 c -3.602,0.671 -6.775,1.638 -9.36,2.801 z m 11.404,-3.442 c 4.171,-0.777 8.609,-1.172 13.07,-1.172 v 9 c -3.943,0 -7.828,0.35 -11.421,1.02 z M 354.9,217.6 v 41.6 h -9 v -41.6 z m 27.5,9.9 c 5.279,0 10.414,-0.627 14.868,-1.785 l 2.264,8.711 c -5.275,1.371 -11.177,2.074 -17.132,2.074 z m 20.5,2.571 V 248.8 h -9 v -18.729 z"
       fill="#2779aa"
       id="path12" />
    <path
       d="m 252.742,32 c -6.285,-0.0023 -12.554,0.367 -16.275,1.1095 -10.578,2.111 -19.817,5.7803 -27.943,11.0997 -5.164,3.3805 -13.363,11.4654 -16.811,16.5757 -3.55,5.2629 -7.74,14.1953 -9.355,19.943 -7.73,27.5051 -0.982,62.7581 17.117,89.4261 2.884,5.755 7.578,9.637 11.917,13.951 8.916,8.878 17.712,14.336 28.127,17.454 4.659,1.395 6.644,1.641 13.272,1.641 6.627,0 8.613,-0.246 13.273,-1.641 10.44,-3.126 19.272,-8.614 28.091,-17.456 5.027,-4.089 8.438,-8.707 12.008,-14.06 20.897,-31.088 26.245,-71.8688 13.065,-99.6352 -3.715,-7.8263 -7.172,-12.7331 -13.074,-18.563 -9.842,-9.7202 -21.653,-15.6913 -37.039,-18.7219 -3.786,-0.7457 -10.088,-1.1201 -16.373,-1.1228 z"
       fill="#2779aa"
       id="path14" />
  </g>
  <defs
     id="defs21">
    <clipPath
       id="clip0">
      <rect
         width="512"
         height="512"
         fill="white"
         id="rect18" />
    </clipPath>
  </defs>
</svg>
