<svg xmlns="http://www.w3.org/2000/svg" xmlns:xlink="http://www.w3.org/1999/xlink" version="1.1" x="0px" y="0px" viewBox="0 0 20 20" enable-background="new 0 0 20 20" xml:space="preserve"><path d="M-105.64,7.34h-2.948V-3.857c0-7.959-6.453-14.412-14.412-14.412c-7.96,0-14.413,6.453-14.413,14.412V7.34h-2.948  c-1.447,0-2.621,1.173-2.621,2.621v25.112c0,1.447,1.173,2.62,2.621,2.62h34.72c1.447,0,2.621-1.173,2.621-2.62V9.961  C-103.02,8.514-104.193,7.34-105.64,7.34z M-120.074,30.05h-5.852l1.483-8.727c-1.207-0.55-2.05-1.76-2.05-3.173  c0-1.93,1.563-3.494,3.493-3.494c1.929,0,3.493,1.564,3.493,3.494c0,1.397-0.827,2.595-2.014,3.152L-120.074,30.05z M-114.159,7.34  h-17.683V-3.012c0-4.883,3.959-8.841,8.842-8.841c4.882,0,8.841,3.958,8.841,8.841V7.34z"></path><path d="M-52.507,7.139h-1.955v-7.425c0-5.278-4.279-9.558-9.557-9.558c-5.279,0-9.558,4.279-9.558,9.558v7.425h-1.955  c-0.96,0-1.738,0.778-1.738,1.738V25.53c0,0.959,0.778,1.737,1.738,1.737h23.024c0.96,0,1.738-0.778,1.738-1.737V8.877  C-50.77,7.917-51.547,7.139-52.507,7.139z M-62.079,22.198h-3.88l0.983-5.787c-0.8-0.364-1.359-1.167-1.359-2.104  c0-1.279,1.037-2.316,2.316-2.316c1.279,0,2.316,1.037,2.316,2.316c0,0.927-0.548,1.721-1.335,2.09L-62.079,22.198z M-58.156,7.139  h-11.726V0.274c0-3.238,2.625-5.863,5.863-5.863s5.863,2.625,5.863,5.863V7.139z"></path><path d="M-12.645,9.76h-1.469V4.182c0-3.966-3.214-7.182-7.181-7.182s-7.181,3.215-7.181,7.182V9.76h-1.468  c-0.721,0-1.306,0.584-1.306,1.306v12.512c0,0.72,0.584,1.305,1.306,1.305h17.299c0.721,0,1.306-0.585,1.306-1.305V11.066  C-11.339,10.345-11.924,9.76-12.645,9.76z M-19.836,21.074h-2.916l0.739-4.348c-0.602-0.273-1.021-0.877-1.021-1.581  c0-0.961,0.779-1.74,1.74-1.74s1.74,0.779,1.74,1.74c0,0.696-0.412,1.293-1.003,1.571L-19.836,21.074z M-16.89,9.76h-8.81V4.603  c0-2.433,1.973-4.405,4.405-4.405s4.405,1.972,4.405,4.405V9.76z"></path><path d="M15.392,9.205h-0.916V5.727c0-2.473-2.004-4.477-4.477-4.477S5.523,3.254,5.523,5.727v3.478H4.608  c-0.45,0-0.814,0.364-0.814,0.814v7.8c0,0.449,0.364,0.813,0.814,0.813h10.784c0.45,0,0.814-0.365,0.814-0.813v-7.8  C16.206,9.569,15.842,9.205,15.392,9.205z M10.909,16.258H9.091l0.46-2.71c-0.375-0.17-0.637-0.546-0.637-0.985  c0-0.599,0.485-1.085,1.085-1.085s1.085,0.486,1.085,1.085c0,0.434-0.257,0.806-0.625,0.979L10.909,16.258z M12.746,9.205H7.253  V5.99c0-1.517,1.23-2.747,2.747-2.747s2.746,1.229,2.746,2.747V9.205z"></path></svg>