<?xml version="1.0" encoding="utf-8"?>
<!-- Svg Vector Icons : http://www.onlinewebfonts.com/icon -->
<!DOCTYPE svg PUBLIC "-//W3C//DTD SVG 1.1//EN" "http://www.w3.org/Graphics/SVG/1.1/DTD/svg11.dtd">
<svg version="1.1" xmlns="http://www.w3.org/2000/svg" xmlns:xlink="http://www.w3.org/1999/xlink" x="0px" y="0px" viewBox="0 0 1000 1000" enable-background="new 0 0 1000 1000" xml:space="preserve">
<metadata> Svg Vector Icons : http://www.onlinewebfonts.com/icon </metadata>
<g><g transform="translate(0.000000,511.000000) scale(0.100000,-0.100000)"><path d="M4084.6,4999c-92.6-38.8-96.9-58.2-101.2-646.2l-6.5-566.5l-226.2-79.7c-124.9-45.2-320.9-124.9-435.1-178.8l-208.9-99.1l-409.2,396.3c-333.8,323.1-420,396.3-469.5,396.3c-51.7,0-165.8-105.5-702.1-641.8c-557.9-557.9-639.7-648.3-639.7-704.3c2.2-53.8,66.8-131.4,396.3-471.7l394.2-409.2l-96.9-204.6c-53.8-114.2-133.5-308-178.8-432.9l-79.7-226.2l-572.9-10.8c-510.5-8.6-575.1-15.1-609.5-49.5C102.2,1036,100,967,100,118.4c0-848.6,2.2-917.5,38.8-952c34.5-34.5,99.1-40.9,611.7-49.5l572.9-10.8l47.4-150.8c51.7-165.9,176.6-476,258.5-635.4l51.7-101.2l-398.5-396.3c-348.9-348.9-396.3-404.9-396.3-465.2c0-60.3,71.1-140,637.5-715.1c562.2-570.8,646.2-648.3,704.3-648.3c58.2,0,122.8,56,476,407.1l411.4,407.1l275.7-135.7c150.8-75.4,346.8-159.4,435.1-185.2l161.5-51.7v-562.1c0-523.4,2.2-568.6,40.9-613.8l40.9-51.7h919.7h919.7l40.9,51.7c38.8,47.4,40.9,90.4,40.9,628.9c0,497.6,4.3,579.4,32.3,579.4c75.4,0,448,135.7,646.2,236.9l215.4,107.7l398.5-409.2c344.6-355.4,407.1-409.2,463.1-409.2s152.9,88.3,717.2,652.6c577.2,577.2,650.5,659.1,650.5,719.4c0,60.3-47.4,112-407.1,458.8l-407.1,392l124.9,258.5c68.9,142.1,152.9,344.6,187.4,450.2l60.3,191.7h562.1c523.4,0,568.6,2.2,613.8,40.9l51.7,40.9v917.5c0,850.8-2.1,919.7-38.8,954.2c-34.5,34.5-99.1,40.9-620.3,49.5l-583.7,10.8l-71.1,217.5c-38.8,118.5-118.5,312.3-178.8,430.8l-107.7,213.2l407.1,411.4c348.9,351.1,407.1,420,407.1,473.8c0,58.1-81.8,146.5-644,704.3c-585.8,581.5-652.6,639.7-717.2,639.7c-64.6,0-112-40.9-467.4-396.3l-396.3-398.5l-101.2,51.7c-152.9,77.6-465.2,204.6-635.4,260.6l-150.8,47.4l-10.8,572.9c-8.6,510.5-15.1,575.1-49.5,609.5c-34.5,36.6-105.5,38.8-926.2,43.1C4526.2,5014.1,4108.3,5007.6,4084.6,4999z M5198.2,2476.9c542.8-51.7,1027.4-271.4,1415.1-635.4C6990.2,1484,7252.9,984.3,7326.2,476c40.9-275.7,17.2-717.2-51.7-969.2c-213.2-771.1-781.8-1376.3-1529.2-1630.5c-501.8-172.3-1130.8-155.1-1630.5,40.9c-980,385.5-1596,1397.9-1486.2,2436c62.5,577.2,284.3,1033.8,700,1447.4c448,445.8,908.9,641.8,1628.3,693.5C4974.1,2496.3,5084,2487.6,5198.2,2476.9z"/></g></g>
</svg>